<?xml version="1.0" standalone="no"?>
<!DOCTYPE svg PUBLIC "-//W3C//DTD SVG 20010904//EN"
 "http://www.w3.org/TR/2001/REC-SVG-20010904/DTD/svg10.dtd">
<svg version="1.0" xmlns="http://www.w3.org/2000/svg"
 width="754.000000pt" height="754.000000pt" viewBox="0 0 754.000000 754.000000"
 preserveAspectRatio="xMidYMid meet">
<metadata>
Created by potrace 1.14, written by Peter Selinger 2001-2017
</metadata>
<g transform="translate(0.000000,754.000000) scale(0.100000,-0.100000)"
fill="#000000" stroke="none">
<path d="M3224 4756 c-18 -8 -38 -29 -50 -52 -18 -37 -19 -74 -22 -931 -3
-979 -4 -951 55 -974 60 -23 121 7 953 470 442 247 814 458 827 469 30 27 30
72 1 99 -33 30 -1597 898 -1652 917 -56 19 -71 19 -112 2z"/>
<path d="M6270 3665 c0 -137 -43 -401 -95 -579 -120 -415 -347 -790 -661
-1096 -205 -199 -392 -333 -639 -455 -180 -89 -303 -135 -479 -180 -861 -219
-1741 14 -2374 629 l-103 100 303 303 303 303 -995 -2 -995 -3 -3 -995 -2
-995 252 252 253 252 117 -114 c287 -278 581 -487 938 -666 956 -479 2065
-526 3065 -129 855 340 1557 987 1976 1821 224 446 364 968 385 1433 3 67 7
133 9 149 l5 27 -630 0 -630 0 0 -55z"/>
</g>
</svg>
